<svg width="192" height="133" viewBox="0 0 192 133" fill="none" xmlns="http://www.w3.org/2000/svg">
<g clip-path="url(#clip0_202_67)">
<path d="M112.78 81.67C105.3 78.13 96.36 80.65 91.82 87.57L77.14 109.97C67.64 124.48 54.75 132.63 41.32 132.63H0L80.38 9.87C89 -3.29 102.97 -3.29 111.58 9.87L191.96 132.63H124.87C115.17 132.63 109.28 121.92 114.48 113.73L119.68 105.53C125.02 97.12 121.78 85.94 112.78 81.67Z" fill="#3E5155"/>
<path d="M111.58 9.87C102.96 -3.29 88.99 -3.29 80.38 9.87L0 132.63H41.32C54.75 132.63 67.64 124.48 77.14 109.97L96.5 80.39L127.13 33.61L111.58 9.87Z" fill="#3E5155"/>
</g>
<defs>
<clipPath id="clip0_202_67">
<rect width="191.96" height="132.63" fill="white"/>
</clipPath>
</defs>
</svg>
